<?xml version="1.0" encoding="UTF-8"?><svg id="Layer_1" xmlns="http://www.w3.org/2000/svg" viewBox="0 0 826.17 89.3"><defs><style>.cls-1{fill:#00b8f1;}.cls-1,.cls-2{stroke-width:0px;}.cls-2{fill:#fff;}</style></defs><path class="cls-2" d="m108.53,1.95l-40.11,85.4h-28.3L0,1.95h30.99l24.37,49.9L80.22,1.95h28.3Z"/><path class="cls-2" d="m211.9,1.95h28.79v63.07h38.55v22.33h-67.34V1.95Z"/><path class="cls-2" d="m293.64,1.95h28.79v85.4h-28.79V1.95Z"/><path class="cls-2" d="m342.81,1.95h42.09c9.52,0,17.91,1.73,25.19,5.19,7.28,3.46,12.93,8.4,16.96,14.82,4.03,6.43,6.04,13.99,6.04,22.69s-2.01,16.27-6.04,22.69c-4.03,6.43-9.68,11.37-16.96,14.82-7.28,3.46-15.68,5.19-25.19,5.19h-42.09V1.95Zm40.87,62.95c6.18,0,11.12-1.77,14.82-5.31,3.7-3.54,5.55-8.52,5.55-14.95s-1.85-11.41-5.55-14.94c-3.7-3.54-8.64-5.31-14.82-5.31h-12.08v40.5h12.08Z"/><path class="cls-2" d="m507.02,72.47h-32.45l-5.73,14.88h-29.28L476.89,1.95h28.3l37.33,85.4h-29.77l-5.73-14.88Zm-7.93-20.74l-8.3-21.47-8.3,21.47h16.59Z"/><path class="cls-2" d="m567.9,24.28h-25.01V1.95h78.81v22.33h-25.01v63.07h-28.79V24.28Z"/><path class="cls-2" d="m654.4,83.57c-7.32-3.82-13.05-9.13-17.2-15.92-4.15-6.79-6.22-14.46-6.22-23s2.07-16.21,6.22-23c4.15-6.79,9.88-12.1,17.2-15.92,7.32-3.82,15.57-5.73,24.77-5.73s17.45,1.91,24.77,5.73c7.32,3.82,13.05,9.13,17.2,15.92,4.15,6.79,6.22,14.46,6.22,23s-2.07,16.21-6.22,23c-4.15,6.79-9.88,12.1-17.2,15.92-7.32,3.82-15.58,5.73-24.77,5.73s-17.45-1.91-24.77-5.73Zm34.46-20.19c2.89-1.75,5.19-4.23,6.89-7.44,1.71-3.21,2.56-6.97,2.56-11.29s-.85-8.07-2.56-11.28c-1.71-3.21-4.01-5.69-6.89-7.44-2.89-1.75-6.12-2.62-9.7-2.62s-6.81.88-9.7,2.62c-2.89,1.75-5.19,4.23-6.89,7.44-1.71,3.21-2.56,6.97-2.56,11.28s.85,8.07,2.56,11.29c1.71,3.21,4,5.69,6.89,7.44,2.89,1.75,6.12,2.62,9.7,2.62s6.81-.87,9.7-2.62Z"/><path class="cls-2" d="m780.91,65.88h-7.81v21.47h-28.79V1.95h41.11c7.89,0,14.76,1.3,20.62,3.9,5.86,2.6,10.37,6.34,13.54,11.22,3.17,4.88,4.76,10.57,4.76,17.08,0,6.1-1.38,11.43-4.15,15.98-2.77,4.56-6.75,8.17-11.96,10.86l17.93,26.35h-30.74l-14.52-21.47Zm11.47-39.1c-1.95-1.75-4.88-2.62-8.78-2.62h-10.49v20.01h10.49c3.9,0,6.83-.87,8.78-2.62,1.95-1.75,2.93-4.21,2.93-7.38s-.98-5.63-2.93-7.38Z"/><polygon class="cls-2" points="156.05 2.03 128.7 2.03 113.16 35.37 142 35.37 142 54.28 155.8 54.28 169.69 87.35 196.33 87.35 156.05 2.03"/><polygon class="cls-2" points="88.93 87.35 114.76 87.35 128.94 54.3 104.34 54.3 88.93 87.35"/><rect class="cls-1" x="142" y="16.45" width="48.46" height="18.92"/></svg>